<svg width="84.802" height="46.002" viewBox="0 0 84.802 46.002" xmlns="http://www.w3.org/2000/svg"><g id="svgGroup" stroke-linecap="round" fill-rule="evenodd" font-size="9pt" stroke="#64ffda" stroke-width="0.25mm" fill="#64ffda" style="stroke:#64ffda;stroke-width:0.25mm;fill:#64ffda"><path d="M 84.8 45.001 L 84.8 16.001 A 22.696 22.696 0 0 0 84.063 9.994 C 82.381 3.866 77.944 0.727 72.041 0.114 A 21.685 21.685 0 0 0 69.8 0.001 A 21.803 21.803 0 0 0 64.178 0.684 A 18.661 18.661 0 0 0 57.4 4.101 L 57.4 0.701 L 41.4 1.301 L 41.4 45.001 L 57.4 45.001 L 57.4 15.601 C 59.2 14.701 61.5 14.101 63.5 14.101 A 7.792 7.792 0 0 1 65.843 14.415 C 67.685 14.999 68.8 16.46 68.8 19.301 L 68.8 45.001 L 84.8 45.001 Z M 0.9 28.801 L 0 42.201 C 3.4 44.501 10 46.001 16.3 46.001 C 21.87 46.001 26.104 44.861 29.174 42.974 A 13.488 13.488 0 0 0 35.7 31.001 C 35.7 16.001 16.8 17.301 16.8 14.301 C 16.8 13.201 17.7 12.701 20 12.701 A 27.567 27.567 0 0 1 23.075 12.881 C 26.029 13.215 28.984 13.992 31.072 15.032 A 12.421 12.421 0 0 1 31.4 15.201 L 33.8 2.301 A 15.641 15.641 0 0 0 31.024 1.276 C 28.01 0.44 24.05 0.001 20.2 0.001 A 28.366 28.366 0 0 0 12.03 1.125 C 9.155 1.991 6.738 3.324 4.866 5.013 A 13.074 13.074 0 0 0 0.4 14.901 C 0.4 28.853 16.536 28.804 18.989 31.083 A 0.84 0.84 0 0 1 19.3 31.701 C 19.3 32.801 18.4 33.301 16.1 33.301 A 24.744 24.744 0 0 1 14.042 33.213 C 9.588 32.841 5.134 31.336 2.183 29.626 A 15.649 15.649 0 0 1 0.9 28.801 Z" vector-effect="non-scaling-stroke"/></g></svg>